<svg xmlns="http://www.w3.org/2000/svg" width="234.445" height="502.839" viewBox="0 0 234.445 502.839"><defs><style>.a{fill:#3db4d9;}.b{fill:none;stroke:#fff;stroke-miterlimit:10;}</style></defs><g transform="translate(-27.685 -24.501)"><path class="a" d="M0,0H100.255A133.189,133.189,0,0,1,233.444,133.189v369.15a0,0,0,0,1,0,0H120.9A120.9,120.9,0,0,1,0,381.439V0A0,0,0,0,1,0,0Z" transform="translate(28.185 24.501)"/><path class="b" d="M261.63,413.52H149.086a120.9,120.9,0,0,1-120.9-120.9V41.52H128.44A133.19,133.19,0,0,1,261.63,174.71Z"/><path class="b" d="M261.63,193.6V432.407H149.086a120.9,120.9,0,0,1-120.9-120.9V60.407H128.44A133.19,133.19,0,0,1,261.63,193.6Z"/><path class="b" d="M261.63,212.483V451.294H149.086a120.9,120.9,0,0,1-120.9-120.9V79.294H128.44A133.189,133.189,0,0,1,261.63,212.483Z"/><path class="b" d="M261.63,231.37V470.18H149.086a120.9,120.9,0,0,1-120.9-120.9V98.18H128.44A133.19,133.19,0,0,1,261.63,231.37Z"/><path class="b" d="M261.63,250.256V489.067H149.086a120.9,120.9,0,0,1-120.9-120.9v-251.1H128.44A133.19,133.19,0,0,1,261.63,250.256Z"/><path class="b" d="M261.63,269.143V507.954H149.086a120.9,120.9,0,0,1-120.9-120.9v-251.1H128.44A133.189,133.189,0,0,1,261.63,269.143Z"/><path class="b" d="M261.63,526.84H149.086a120.9,120.9,0,0,1-120.9-120.9V154.84H128.44A133.19,133.19,0,0,1,261.63,288.029Z"/></g></svg>