<svg xmlns="http://www.w3.org/2000/svg" width="122" height="388" viewBox="0 0 122 388"><defs><style>.a{fill:#ffe8c3;}</style></defs><g transform="translate(-48 -440)"><g transform="translate(16 65)"><circle class="a" cx="3.5" cy="3.5" r="3.5" transform="translate(32 375)"/><circle class="a" cx="3.5" cy="3.5" r="3.5" transform="translate(49 375)"/><ellipse class="a" cx="4" cy="3.5" rx="4" ry="3.5" transform="translate(65 375)"/><circle class="a" cx="3.5" cy="3.5" r="3.5" transform="translate(82 375)"/><circle class="a" cx="3.5" cy="3.5" r="3.5" transform="translate(32 392)"/><circle class="a" cx="3.5" cy="3.5" r="3.5" transform="translate(49 392)"/><ellipse class="a" cx="4" cy="3.5" rx="4" ry="3.5" transform="translate(65 392)"/><circle class="a" cx="3.5" cy="3.5" r="3.5" transform="translate(82 392)"/><ellipse class="a" cx="3.5" cy="4" rx="3.5" ry="4" transform="translate(32 408)"/><ellipse class="a" cx="3.5" cy="4" rx="3.5" ry="4" transform="translate(49 408)"/><circle class="a" cx="4" cy="4" r="4" transform="translate(65 408)"/><ellipse class="a" cx="3.5" cy="4" rx="3.5" ry="4" transform="translate(82 408)"/><circle class="a" cx="3.5" cy="3.5" r="3.5" transform="translate(32 425)"/><circle class="a" cx="3.5" cy="3.5" r="3.5" transform="translate(49 425)"/><ellipse class="a" cx="4" cy="3.5" rx="4" ry="3.5" transform="translate(65 425)"/><circle class="a" cx="3.5" cy="3.5" r="3.5" transform="translate(82 425)"/><circle class="a" cx="3.5" cy="3.5" r="3.5" transform="translate(32 442)"/><circle class="a" cx="3.5" cy="3.5" r="3.5" transform="translate(49 442)"/><ellipse class="a" cx="4" cy="3.5" rx="4" ry="3.5" transform="translate(65 442)"/><circle class="a" cx="3.5" cy="3.5" r="3.5" transform="translate(82 442)"/><ellipse class="a" cx="3.5" cy="4" rx="3.5" ry="4" transform="translate(32 458)"/><ellipse class="a" cx="3.5" cy="4" rx="3.5" ry="4" transform="translate(49 458)"/><circle class="a" cx="4" cy="4" r="4" transform="translate(65 458)"/><ellipse class="a" cx="3.5" cy="4" rx="3.5" ry="4" transform="translate(82 458)"/><circle class="a" cx="3.5" cy="3.5" r="3.5" transform="translate(32 475)"/><circle class="a" cx="3.5" cy="3.5" r="3.5" transform="translate(49 475)"/><ellipse class="a" cx="4" cy="3.5" rx="4" ry="3.5" transform="translate(65 475)"/><circle class="a" cx="3.5" cy="3.5" r="3.5" transform="translate(82 475)"/><circle class="a" cx="3.5" cy="3.5" r="3.5" transform="translate(32 492)"/><circle class="a" cx="3.5" cy="3.5" r="3.5" transform="translate(49 492)"/><ellipse class="a" cx="4" cy="3.5" rx="4" ry="3.5" transform="translate(65 492)"/><circle class="a" cx="3.5" cy="3.5" r="3.5" transform="translate(82 492)"/></g><g transform="translate(81 65)"><circle class="a" cx="3.5" cy="3.5" r="3.5" transform="translate(32 375)"/><circle class="a" cx="3.5" cy="3.5" r="3.5" transform="translate(49 375)"/><ellipse class="a" cx="4" cy="3.5" rx="4" ry="3.5" transform="translate(65 375)"/><circle class="a" cx="3.5" cy="3.5" r="3.5" transform="translate(82 375)"/><circle class="a" cx="3.5" cy="3.5" r="3.5" transform="translate(32 392)"/><circle class="a" cx="3.5" cy="3.5" r="3.5" transform="translate(49 392)"/><ellipse class="a" cx="4" cy="3.5" rx="4" ry="3.5" transform="translate(65 392)"/><circle class="a" cx="3.5" cy="3.5" r="3.5" transform="translate(82 392)"/><ellipse class="a" cx="3.5" cy="4" rx="3.5" ry="4" transform="translate(32 408)"/><ellipse class="a" cx="3.5" cy="4" rx="3.5" ry="4" transform="translate(49 408)"/><circle class="a" cx="4" cy="4" r="4" transform="translate(65 408)"/><ellipse class="a" cx="3.5" cy="4" rx="3.5" ry="4" transform="translate(82 408)"/><circle class="a" cx="3.5" cy="3.5" r="3.5" transform="translate(32 425)"/><circle class="a" cx="3.5" cy="3.5" r="3.5" transform="translate(49 425)"/><ellipse class="a" cx="4" cy="3.5" rx="4" ry="3.5" transform="translate(65 425)"/><circle class="a" cx="3.5" cy="3.5" r="3.5" transform="translate(82 425)"/><circle class="a" cx="3.5" cy="3.5" r="3.5" transform="translate(32 442)"/><circle class="a" cx="3.5" cy="3.5" r="3.5" transform="translate(49 442)"/><ellipse class="a" cx="4" cy="3.5" rx="4" ry="3.5" transform="translate(65 442)"/><circle class="a" cx="3.5" cy="3.5" r="3.5" transform="translate(82 442)"/><ellipse class="a" cx="3.5" cy="4" rx="3.5" ry="4" transform="translate(32 458)"/><ellipse class="a" cx="3.5" cy="4" rx="3.5" ry="4" transform="translate(49 458)"/><circle class="a" cx="4" cy="4" r="4" transform="translate(65 458)"/><ellipse class="a" cx="3.5" cy="4" rx="3.5" ry="4" transform="translate(82 458)"/><circle class="a" cx="3.5" cy="3.5" r="3.5" transform="translate(32 475)"/><circle class="a" cx="3.5" cy="3.5" r="3.5" transform="translate(49 475)"/><ellipse class="a" cx="4" cy="3.5" rx="4" ry="3.5" transform="translate(65 475)"/><circle class="a" cx="3.5" cy="3.5" r="3.5" transform="translate(82 475)"/><circle class="a" cx="3.5" cy="3.5" r="3.5" transform="translate(32 492)"/><circle class="a" cx="3.5" cy="3.5" r="3.5" transform="translate(49 492)"/><ellipse class="a" cx="4" cy="3.5" rx="4" ry="3.5" transform="translate(65 492)"/><circle class="a" cx="3.5" cy="3.5" r="3.5" transform="translate(82 492)"/></g><g transform="translate(16 197)"><circle class="a" cx="3.5" cy="3.5" r="3.5" transform="translate(32 375)"/><circle class="a" cx="3.5" cy="3.5" r="3.5" transform="translate(49 375)"/><ellipse class="a" cx="4" cy="3.5" rx="4" ry="3.5" transform="translate(65 375)"/><circle class="a" cx="3.5" cy="3.5" r="3.5" transform="translate(82 375)"/><circle class="a" cx="3.5" cy="3.5" r="3.5" transform="translate(32 392)"/><circle class="a" cx="3.5" cy="3.5" r="3.5" transform="translate(49 392)"/><ellipse class="a" cx="4" cy="3.5" rx="4" ry="3.5" transform="translate(65 392)"/><circle class="a" cx="3.5" cy="3.5" r="3.5" transform="translate(82 392)"/><ellipse class="a" cx="3.5" cy="4" rx="3.5" ry="4" transform="translate(32 408)"/><ellipse class="a" cx="3.5" cy="4" rx="3.5" ry="4" transform="translate(49 408)"/><circle class="a" cx="4" cy="4" r="4" transform="translate(65 408)"/><ellipse class="a" cx="3.5" cy="4" rx="3.5" ry="4" transform="translate(82 408)"/><circle class="a" cx="3.5" cy="3.5" r="3.5" transform="translate(32 425)"/><circle class="a" cx="3.5" cy="3.5" r="3.5" transform="translate(49 425)"/><ellipse class="a" cx="4" cy="3.5" rx="4" ry="3.5" transform="translate(65 425)"/><circle class="a" cx="3.5" cy="3.5" r="3.5" transform="translate(82 425)"/><circle class="a" cx="3.5" cy="3.5" r="3.5" transform="translate(32 442)"/><circle class="a" cx="3.5" cy="3.5" r="3.5" transform="translate(49 442)"/><ellipse class="a" cx="4" cy="3.5" rx="4" ry="3.5" transform="translate(65 442)"/><circle class="a" cx="3.5" cy="3.5" r="3.5" transform="translate(82 442)"/><ellipse class="a" cx="3.5" cy="4" rx="3.5" ry="4" transform="translate(32 458)"/><ellipse class="a" cx="3.5" cy="4" rx="3.5" ry="4" transform="translate(49 458)"/><circle class="a" cx="4" cy="4" r="4" transform="translate(65 458)"/><ellipse class="a" cx="3.5" cy="4" rx="3.5" ry="4" transform="translate(82 458)"/><circle class="a" cx="3.5" cy="3.5" r="3.5" transform="translate(32 475)"/><circle class="a" cx="3.5" cy="3.5" r="3.5" transform="translate(49 475)"/><ellipse class="a" cx="4" cy="3.5" rx="4" ry="3.5" transform="translate(65 475)"/><circle class="a" cx="3.5" cy="3.5" r="3.5" transform="translate(82 475)"/><circle class="a" cx="3.5" cy="3.5" r="3.5" transform="translate(32 492)"/><circle class="a" cx="3.5" cy="3.5" r="3.5" transform="translate(49 492)"/><ellipse class="a" cx="4" cy="3.5" rx="4" ry="3.5" transform="translate(65 492)"/><circle class="a" cx="3.5" cy="3.5" r="3.5" transform="translate(82 492)"/></g><g transform="translate(81 197)"><circle class="a" cx="3.5" cy="3.5" r="3.5" transform="translate(32 375)"/><circle class="a" cx="3.5" cy="3.5" r="3.5" transform="translate(49 375)"/><ellipse class="a" cx="4" cy="3.5" rx="4" ry="3.5" transform="translate(65 375)"/><circle class="a" cx="3.5" cy="3.5" r="3.5" transform="translate(82 375)"/><circle class="a" cx="3.5" cy="3.5" r="3.5" transform="translate(32 392)"/><circle class="a" cx="3.5" cy="3.5" r="3.5" transform="translate(49 392)"/><ellipse class="a" cx="4" cy="3.5" rx="4" ry="3.5" transform="translate(65 392)"/><circle class="a" cx="3.5" cy="3.5" r="3.5" transform="translate(82 392)"/><ellipse class="a" cx="3.5" cy="4" rx="3.5" ry="4" transform="translate(32 408)"/><ellipse class="a" cx="3.5" cy="4" rx="3.5" ry="4" transform="translate(49 408)"/><circle class="a" cx="4" cy="4" r="4" transform="translate(65 408)"/><ellipse class="a" cx="3.5" cy="4" rx="3.5" ry="4" transform="translate(82 408)"/><circle class="a" cx="3.5" cy="3.5" r="3.5" transform="translate(32 425)"/><circle class="a" cx="3.5" cy="3.5" r="3.5" transform="translate(49 425)"/><ellipse class="a" cx="4" cy="3.5" rx="4" ry="3.5" transform="translate(65 425)"/><circle class="a" cx="3.5" cy="3.5" r="3.5" transform="translate(82 425)"/><circle class="a" cx="3.5" cy="3.5" r="3.5" transform="translate(32 442)"/><circle class="a" cx="3.5" cy="3.5" r="3.5" transform="translate(49 442)"/><ellipse class="a" cx="4" cy="3.5" rx="4" ry="3.5" transform="translate(65 442)"/><circle class="a" cx="3.5" cy="3.5" r="3.5" transform="translate(82 442)"/><ellipse class="a" cx="3.5" cy="4" rx="3.5" ry="4" transform="translate(32 458)"/><ellipse class="a" cx="3.5" cy="4" rx="3.5" ry="4" transform="translate(49 458)"/><circle class="a" cx="4" cy="4" r="4" transform="translate(65 458)"/><ellipse class="a" cx="3.5" cy="4" rx="3.5" ry="4" transform="translate(82 458)"/><circle class="a" cx="3.5" cy="3.5" r="3.5" transform="translate(32 475)"/><circle class="a" cx="3.5" cy="3.5" r="3.5" transform="translate(49 475)"/><ellipse class="a" cx="4" cy="3.5" rx="4" ry="3.5" transform="translate(65 475)"/><circle class="a" cx="3.5" cy="3.5" r="3.5" transform="translate(82 475)"/><circle class="a" cx="3.5" cy="3.5" r="3.5" transform="translate(32 492)"/><circle class="a" cx="3.5" cy="3.5" r="3.5" transform="translate(49 492)"/><ellipse class="a" cx="4" cy="3.5" rx="4" ry="3.5" transform="translate(65 492)"/><circle class="a" cx="3.5" cy="3.5" r="3.5" transform="translate(82 492)"/></g><g transform="translate(16 329)"><circle class="a" cx="3.5" cy="3.5" r="3.5" transform="translate(32 375)"/><circle class="a" cx="3.5" cy="3.5" r="3.5" transform="translate(49 375)"/><ellipse class="a" cx="4" cy="3.5" rx="4" ry="3.5" transform="translate(65 375)"/><circle class="a" cx="3.5" cy="3.5" r="3.5" transform="translate(82 375)"/><circle class="a" cx="3.5" cy="3.5" r="3.5" transform="translate(32 392)"/><circle class="a" cx="3.5" cy="3.5" r="3.5" transform="translate(49 392)"/><ellipse class="a" cx="4" cy="3.5" rx="4" ry="3.5" transform="translate(65 392)"/><circle class="a" cx="3.5" cy="3.5" r="3.5" transform="translate(82 392)"/><ellipse class="a" cx="3.5" cy="4" rx="3.5" ry="4" transform="translate(32 408)"/><ellipse class="a" cx="3.5" cy="4" rx="3.5" ry="4" transform="translate(49 408)"/><circle class="a" cx="4" cy="4" r="4" transform="translate(65 408)"/><ellipse class="a" cx="3.5" cy="4" rx="3.5" ry="4" transform="translate(82 408)"/><circle class="a" cx="3.5" cy="3.5" r="3.5" transform="translate(32 425)"/><circle class="a" cx="3.5" cy="3.5" r="3.5" transform="translate(49 425)"/><ellipse class="a" cx="4" cy="3.5" rx="4" ry="3.5" transform="translate(65 425)"/><circle class="a" cx="3.5" cy="3.5" r="3.5" transform="translate(82 425)"/><circle class="a" cx="3.5" cy="3.5" r="3.5" transform="translate(32 442)"/><circle class="a" cx="3.5" cy="3.5" r="3.5" transform="translate(49 442)"/><ellipse class="a" cx="4" cy="3.5" rx="4" ry="3.5" transform="translate(65 442)"/><circle class="a" cx="3.5" cy="3.5" r="3.5" transform="translate(82 442)"/><ellipse class="a" cx="3.5" cy="4" rx="3.5" ry="4" transform="translate(32 458)"/><ellipse class="a" cx="3.5" cy="4" rx="3.5" ry="4" transform="translate(49 458)"/><circle class="a" cx="4" cy="4" r="4" transform="translate(65 458)"/><ellipse class="a" cx="3.5" cy="4" rx="3.5" ry="4" transform="translate(82 458)"/><circle class="a" cx="3.5" cy="3.5" r="3.5" transform="translate(32 475)"/><circle class="a" cx="3.5" cy="3.5" r="3.5" transform="translate(49 475)"/><ellipse class="a" cx="4" cy="3.5" rx="4" ry="3.5" transform="translate(65 475)"/><circle class="a" cx="3.5" cy="3.5" r="3.5" transform="translate(82 475)"/><circle class="a" cx="3.5" cy="3.5" r="3.5" transform="translate(32 492)"/><circle class="a" cx="3.5" cy="3.5" r="3.5" transform="translate(49 492)"/><ellipse class="a" cx="4" cy="3.5" rx="4" ry="3.5" transform="translate(65 492)"/><circle class="a" cx="3.5" cy="3.5" r="3.5" transform="translate(82 492)"/></g><g transform="translate(81 329)"><circle class="a" cx="3.5" cy="3.5" r="3.5" transform="translate(32 375)"/><circle class="a" cx="3.5" cy="3.5" r="3.5" transform="translate(49 375)"/><ellipse class="a" cx="4" cy="3.5" rx="4" ry="3.5" transform="translate(65 375)"/><circle class="a" cx="3.5" cy="3.5" r="3.5" transform="translate(82 375)"/><circle class="a" cx="3.5" cy="3.5" r="3.5" transform="translate(32 392)"/><circle class="a" cx="3.5" cy="3.5" r="3.5" transform="translate(49 392)"/><ellipse class="a" cx="4" cy="3.5" rx="4" ry="3.5" transform="translate(65 392)"/><circle class="a" cx="3.5" cy="3.5" r="3.5" transform="translate(82 392)"/><ellipse class="a" cx="3.5" cy="4" rx="3.5" ry="4" transform="translate(32 408)"/><ellipse class="a" cx="3.5" cy="4" rx="3.5" ry="4" transform="translate(49 408)"/><circle class="a" cx="4" cy="4" r="4" transform="translate(65 408)"/><ellipse class="a" cx="3.5" cy="4" rx="3.5" ry="4" transform="translate(82 408)"/><circle class="a" cx="3.5" cy="3.5" r="3.5" transform="translate(32 425)"/><circle class="a" cx="3.5" cy="3.5" r="3.5" transform="translate(49 425)"/><ellipse class="a" cx="4" cy="3.5" rx="4" ry="3.5" transform="translate(65 425)"/><circle class="a" cx="3.5" cy="3.5" r="3.5" transform="translate(82 425)"/><circle class="a" cx="3.5" cy="3.5" r="3.5" transform="translate(32 442)"/><circle class="a" cx="3.5" cy="3.5" r="3.5" transform="translate(49 442)"/><ellipse class="a" cx="4" cy="3.5" rx="4" ry="3.5" transform="translate(65 442)"/><circle class="a" cx="3.5" cy="3.5" r="3.5" transform="translate(82 442)"/><ellipse class="a" cx="3.5" cy="4" rx="3.5" ry="4" transform="translate(32 458)"/><ellipse class="a" cx="3.5" cy="4" rx="3.5" ry="4" transform="translate(49 458)"/><circle class="a" cx="4" cy="4" r="4" transform="translate(65 458)"/><ellipse class="a" cx="3.5" cy="4" rx="3.5" ry="4" transform="translate(82 458)"/><circle class="a" cx="3.5" cy="3.5" r="3.5" transform="translate(32 475)"/><circle class="a" cx="3.5" cy="3.5" r="3.5" transform="translate(49 475)"/><ellipse class="a" cx="4" cy="3.5" rx="4" ry="3.5" transform="translate(65 475)"/><circle class="a" cx="3.5" cy="3.5" r="3.5" transform="translate(82 475)"/><circle class="a" cx="3.5" cy="3.5" r="3.5" transform="translate(32 492)"/><circle class="a" cx="3.5" cy="3.5" r="3.5" transform="translate(49 492)"/><ellipse class="a" cx="4" cy="3.5" rx="4" ry="3.5" transform="translate(65 492)"/><circle class="a" cx="3.5" cy="3.5" r="3.5" transform="translate(82 492)"/></g></g></svg>