<svg xmlns="http://www.w3.org/2000/svg" width="56.087" height="12" viewBox="0 0 56.087 12">
  <g id="Group_2901" data-name="Group 2901" transform="translate(-221.913 -169)">
    <path id="Union_7" data-name="Union 7" d="M0,21.6a2.507,2.507,0,0,1,2.6-2.4,2.408,2.408,0,1,1,0,4.8A2.507,2.507,0,0,1,0,21.6ZM0,12A2.506,2.506,0,0,1,2.6,9.6,2.505,2.505,0,0,1,5.2,12a2.505,2.505,0,0,1-2.6,2.4A2.506,2.506,0,0,1,0,12ZM0,2.4A2.506,2.506,0,0,1,2.6,0,2.505,2.505,0,0,1,5.2,2.4,2.505,2.505,0,0,1,2.6,4.8,2.506,2.506,0,0,1,0,2.4Z" transform="matrix(-0.017, 1, -1, -0.017, 246, 171.61)" fill="#fff"/>
    <text id="詳細" transform="translate(253 179)" fill="#fff" font-size="12" font-family="'\.PingFangTC-Regular', '\.PingFang TC'"><tspan x="0" y="0">詳細</tspan></text>
  </g>
</svg>
