<svg xmlns="http://www.w3.org/2000/svg" width="24" height="24" viewBox="0 0 24 24"><defs><style>.a{fill:#3db4d9;}.b{fill:#fff;}</style></defs><circle class="a" cx="12" cy="12" r="12"/><path class="b" d="M0,15.709a1.823,1.823,0,0,1,1.891-1.746,1.751,1.751,0,1,1,0,3.492A1.823,1.823,0,0,1,0,15.709ZM0,8.727A1.822,1.822,0,0,1,1.891,6.982a1.822,1.822,0,0,1,1.89,1.745,1.822,1.822,0,0,1-1.89,1.746A1.822,1.822,0,0,1,0,8.727ZM0,1.746A1.822,1.822,0,0,1,1.891,0a1.822,1.822,0,0,1,1.89,1.746A1.822,1.822,0,0,1,1.891,3.49,1.822,1.822,0,0,1,0,1.746Z" transform="matrix(-0.017, 1, -1, -0.017, 20.759, 10.262)"/></svg>