<svg xmlns="http://www.w3.org/2000/svg" width="19.624" height="24.153" viewBox="0 0 19.624 24.153"><defs><style>.a{fill:#3db4d9;}</style></defs><path class="a" d="M65.737,3.019H61.586V2.264A2.264,2.264,0,0,0,59.322,0H56.3a2.264,2.264,0,0,0-2.264,2.264v.755H49.887A1.887,1.887,0,0,0,48,4.906v1.51a.755.755,0,0,0,.755.755H66.869a.755.755,0,0,0,.755-.755V4.906A1.887,1.887,0,0,0,65.737,3.019ZM55.548,2.264A.756.756,0,0,1,56.3,1.51h3.019a.756.756,0,0,1,.755.755v.755H55.548Z" transform="translate(-48)"/><path class="a" d="M73.6,184a.236.236,0,0,0-.236.247l.623,13.069a2.261,2.261,0,0,0,2.261,2.157H87.711a2.261,2.261,0,0,0,2.261-2.157l.623-13.069a.236.236,0,0,0-.236-.247ZM85,185.887a.755.755,0,1,1,1.51,0V195.7a.755.755,0,0,1-1.51,0Zm-3.774,0a.755.755,0,1,1,1.51,0V195.7a.755.755,0,0,1-1.51,0Zm-3.774,0a.755.755,0,1,1,1.51,0V195.7a.755.755,0,0,1-1.51,0Z" transform="translate(-72.167 -175.32)"/></svg>