<svg xmlns="http://www.w3.org/2000/svg" width="22.706" height="16" viewBox="0 0 22.706 16">
  <g id="upload" transform="translate(1.687 0.5)">
    <g id="Group_2411" data-name="Group 2411" transform="translate(-1.687 -0.5)">
      <path id="Path_1991" data-name="Path 1991" d="M18.467,24.882A6.577,6.577,0,0,0,6.28,22.7a3.768,3.768,0,0,0-.691-.065,3.6,3.6,0,0,0-3.6,3.6,3.935,3.935,0,0,0,.075.747A4.238,4.238,0,0,0,0,30.577a3.985,3.985,0,0,0,1.359,2.951,4.849,4.849,0,0,0,3.362,1.69H8.773a.63.63,0,1,0,0-1.261h-4a3.435,3.435,0,0,1-3.516-3.385A3.079,3.079,0,0,1,3.114,27.79a.635.635,0,0,0,.275-.766,2.287,2.287,0,0,1-.14-.8,2.343,2.343,0,0,1,2.339-2.339,2.3,2.3,0,0,1,.8.14.633.633,0,0,0,.789-.322,5.316,5.316,0,0,1,10.1,1.751.63.63,0,0,0,.523.56,4.066,4.066,0,0,1,3.647,4.024c0,2.321-1.826,3.744-4.076,3.917H13.928a.63.63,0,1,0,0,1.261h3.511a5.586,5.586,0,0,0,3.745-1.849,4.459,4.459,0,0,0,1.522-3.329A5.315,5.315,0,0,0,18.467,24.882Z" transform="translate(0 -19.4)" fill="#3db4d9"/>
      <path id="Path_1992" data-name="Path 1992" d="M165.975,189.817a.629.629,0,0,0,0-.892l-3.338-3.338a.638.638,0,0,0-.444-.187.618.618,0,0,0-.444.187l-3.338,3.338a.633.633,0,0,0,.444,1.079.615.615,0,0,0,.444-.187l2.265-2.265v5.86a.63.63,0,1,0,1.261,0v-5.86l2.265,2.265A.623.623,0,0,0,165.975,189.817Z" transform="translate(-150.837 -178.043)" fill="#3db4d9"/>
    </g>
  </g>
</svg>
